<?xml version="1.0" encoding="utf-8"?>
<!-- Generator: Adobe Illustrator 26.0.3, SVG Export Plug-In . SVG Version: 6.00 Build 0)  -->
<svg version="1.0" id="Layer_1" xmlns="http://www.w3.org/2000/svg" xmlns:xlink="http://www.w3.org/1999/xlink" x="0px" y="0px"
	 viewBox="0 0 515.2 328.4" style="enable-background:new 0 0 515.2 328.4;" xml:space="preserve">
<style type="text/css">
	.st0{fill:none;}
	.st1{fill:#173647;}
	.st2{fill:#85EA2D;}
</style>
<g>
	<g>
		<g>
			<g>
				<g>
					<rect x="410.1" y="171.5" class="st0" width="12.2" height="10"/>
					<path class="st1" d="M412.2,176h-0.7v-3.7h-1.3v-0.6h3.2v0.6h-1.3L412.2,176L412.2,176z"/>
					<path class="st1" d="M416.2,176l-1.2-3.6h0c0,0.5,0,1,0,1.5v2.1h-0.6v-4.3h1l1.2,3.4h0l1.2-3.4h1v4.3h-0.7v-2.1
						c0-0.2,0-0.5,0-0.8s0-0.5,0-0.6h0l-1.3,3.6C416.8,176,416.2,176,416.2,176z"/>
				</g>
			</g>
		</g>
	</g>
	<g>
		<g>
			<g>
				<g>
					<g>
						<path class="st2" d="M103.6,203c-26.3,0-47.6-21.4-47.6-47.6s21.4-47.6,47.6-47.6s47.6,21.4,47.6,47.6S129.8,203,103.6,203z"
							/>
					</g>
					<g>
						<g>
							<path class="st1" d="M103.6,110.1c25,0,45.3,20.3,45.3,45.3c0,25-20.3,45.3-45.3,45.3c-25,0-45.3-20.3-45.3-45.3
								S78.6,110.1,103.6,110.1 M103.6,105.4c-27.6,0-50,22.4-50,50s22.4,50,50,50s50-22.4,50-50S131.1,105.4,103.6,105.4
								L103.6,105.4z"/>
						</g>
					</g>
				</g>
			</g>
		</g>
		<path class="st1" d="M85,139.2c-0.2,1.7,0.1,3.5-0.1,5.2c-0.1,1.7-0.3,3.4-0.7,5.2c-0.5,2.4-2,4.3-4.1,5.8
			c4.1,2.7,4.5,6.8,4.8,10.9c0.1,2.3,0.1,4.5,0.3,6.8c0.2,1.7,0.8,2.2,2.6,2.2c0.7,0,1.5,0,2.3,0v5.3c-5.3,0.9-9.7-0.6-10.7-5.1
			c-0.3-1.6-0.6-3.3-0.7-5c-0.1-1.8,0.1-3.6-0.1-5.4c-0.4-4.9-1-6.6-5.7-6.8v-6.1c0.3-0.1,0.7-0.1,1-0.2c2.6-0.1,3.7-0.9,4.2-3.5
			c0.3-1.4,0.4-2.9,0.5-4.3c0.2-2.8,0.1-5.6,0.6-8.4c0.7-4,3.1-5.9,7.2-6.1c1.2-0.1,2.3,0,3.7,0v5.5c-0.6,0-1,0.1-1.5,0.1
			C85.5,135.3,85.3,136.4,85,139.2z M91.4,151.9L91.4,151.9c-2-0.1-3.7,1.4-3.8,3.3c-0.1,1.9,1.4,3.6,3.3,3.7h0.2
			c1.9,0.1,3.5-1.3,3.7-3.3v-0.2C94.9,153.5,93.4,151.9,91.4,151.9z M103.5,151.9c-1.9-0.1-3.4,1.4-3.5,3.3c0,0.1,0,0.2,0,0.3
			c0,2.1,1.4,3.4,3.6,3.4c2.1,0,3.4-1.4,3.4-3.6C107,153.2,105.6,151.9,103.5,151.9z M115.9,151.9c-2,0-3.6,1.5-3.7,3.5
			c0,2,1.6,3.5,3.5,3.5h0c1.8,0.3,3.6-1.4,3.7-3.5C119.5,153.5,117.8,151.9,115.9,151.9z M132.8,152.2c-2.2-0.1-3.3-0.8-3.9-3
			c-0.3-1.3-0.6-2.8-0.6-4.1c-0.2-2.6-0.1-5.2-0.3-7.8c-0.4-6.1-4.8-8.3-11.3-7.2v5.3c1,0,1.8,0,2.6,0c1.4,0,2.4,0.5,2.5,2.1
			c0.1,1.4,0.1,2.8,0.3,4.2c0.3,2.8,0.4,5.6,0.9,8.4c0.4,2.3,2,4,3.9,5.3c-3.4,2.3-4.4,5.6-4.6,9.2c-0.1,2.5-0.2,5.1-0.3,7.6
			c-0.1,2.3-0.9,3.1-3.3,3.1c-0.7,0-1.3,0.1-2,0.1v5.4c1.4,0,2.6,0.1,3.9,0c3.9-0.2,6.2-2.1,7-5.9c0.3-2.1,0.5-4.2,0.6-6.3
			c0.1-1.9,0.1-3.9,0.3-5.8c0.3-3,1.7-4.2,4.6-4.4c0.3,0,0.6-0.1,0.8-0.2v-6.1C133.5,152.2,133.2,152.2,132.8,152.2z"/>
	</g>
	<g>
		<g>
			<path class="st1" d="M205.5,163.5c0,4-1.5,7.2-4.4,9.4c-2.9,2.3-6.9,3.4-11.9,3.4c-5.4,0-9.6-0.7-12.5-2.1v-5.1
				c1.9,0.8,3.9,1.4,6.1,1.9c2.2,0.5,4.4,0.7,6.6,0.7c3.5,0,6.2-0.7,8-2c1.8-1.3,2.7-3.2,2.7-5.6c0-1.6-0.3-2.9-1-3.9
				c-0.6-1-1.7-1.9-3.2-2.8c-1.5-0.9-3.8-1.8-6.8-2.9c-4.3-1.5-7.3-3.3-9.1-5.4c-1.8-2.1-2.7-4.8-2.7-8.2c0-3.5,1.3-6.3,4-8.4
				s6.2-3.1,10.5-3.1c4.6,0,8.7,0.8,12.6,2.5l-1.7,4.6c-3.8-1.6-7.5-2.4-11-2.4c-2.8,0-5,0.6-6.6,1.8c-1.6,1.2-2.4,2.9-2.4,5
				c0,1.6,0.3,2.9,0.9,3.9c0.6,1,1.6,1.9,3,2.8c1.4,0.8,3.5,1.8,6.4,2.8c4.8,1.7,8.1,3.5,9.9,5.5
				C204.6,157.8,205.5,160.4,205.5,163.5z"/>
			<path class="st1" d="M238.5,175.7l-6.3-20.1c-0.4-1.2-1.1-4-2.2-8.4h-0.2c-0.8,3.7-1.6,6.5-2.2,8.5l-6.5,20.1h-6l-9.4-34.3h5.4
				c2.2,8.6,3.9,15.2,5.1,19.7c1.2,4.5,1.8,7.5,2,9.1h0.2c0.2-1.2,0.6-2.7,1.1-4.6c0.5-1.9,1-3.4,1.3-4.5l6.3-19.7h5.6L239,161
				c1.2,3.6,2,6.6,2.4,9h0.2c0.1-0.8,0.3-1.9,0.7-3.5c0.4-1.6,2.5-10,6.5-25.3h5.4l-9.5,34.3L238.5,175.7L238.5,175.7z"/>
			<path class="st1" d="M278.3,175.7l-1-4.9h-0.2c-1.7,2.1-3.4,3.6-5.1,4.4c-1.7,0.8-3.8,1.1-6.4,1.1c-3.4,0-6.1-0.9-8-2.6
				c-1.9-1.8-2.9-4.2-2.9-7.5c0-6.9,5.5-10.6,16.6-10.9l5.8-0.2V153c0-2.7-0.6-4.7-1.7-6c-1.2-1.3-3-1.9-5.6-1.9
				c-2.9,0-6.1,0.9-9.7,2.6l-1.6-4c1.7-0.9,3.5-1.6,5.6-2.2c2-0.5,4-0.8,6.1-0.8c4.1,0,7.1,0.9,9.1,2.7c2,1.8,3,4.7,3,8.7v23.4
				L278.3,175.7L278.3,175.7z M266.6,172c3.2,0,5.8-0.9,7.6-2.7c1.8-1.8,2.8-4.3,2.8-7.5v-3.1l-5.2,0.2c-4.1,0.1-7.1,0.8-8.9,1.9
				c-1.8,1.1-2.7,2.9-2.7,5.3c0,1.9,0.6,3.3,1.7,4.3C263,171.5,264.6,172,266.6,172z"/>
			<path class="st1" d="M317.8,141.3v3.3l-6.4,0.8c0.6,0.7,1.1,1.7,1.6,2.9c0.5,1.2,0.7,2.5,0.7,4c0,3.4-1.1,6-3.4,8
				c-2.3,2-5.4,3-9.5,3c-1,0-2-0.1-2.9-0.2c-2.2,1.2-3.3,2.6-3.3,4.4c0,0.9,0.4,1.6,1.2,2.1c0.8,0.4,2.1,0.7,4,0.7h6.1
				c3.7,0,6.6,0.8,8.6,2.3s3,3.8,3,6.8c0,3.8-1.5,6.7-4.6,8.7s-7.5,3-13.3,3c-4.5,0-7.9-0.8-10.4-2.5c-2.4-1.7-3.6-4-3.6-7.1
				c0-2.1,0.7-3.9,2-5.4s3.2-2.6,5.6-3.1c-0.9-0.4-1.6-1-2.2-1.8c-0.6-0.8-0.9-1.8-0.9-2.9c0-1.3,0.3-2.3,1-3.3
				c0.7-0.9,1.7-1.8,3.2-2.7c-1.8-0.7-3.2-2-4.3-3.7c-1.1-1.8-1.7-3.8-1.7-6c0-3.8,1.1-6.7,3.4-8.7c2.3-2,5.4-3.1,9.6-3.1
				c1.8,0,3.4,0.2,4.9,0.6L317.8,141.3L317.8,141.3z M290.5,181.4c0,1.9,0.8,3.3,2.3,4.2c1.6,1,3.8,1.4,6.7,1.4c4.4,0,7.6-0.7,9.7-2
				c2.1-1.3,3.1-3.1,3.1-5.3c0-1.9-0.6-3.1-1.7-3.9c-1.1-0.7-3.3-1.1-6.5-1.1h-6.2c-2.4,0-4.2,0.6-5.5,1.7
				C291.1,177.7,290.5,179.3,290.5,181.4z M293.3,152.3c0,2.4,0.7,4.2,2,5.4c1.4,1.2,3.2,1.8,5.7,1.8c5.1,0,7.6-2.5,7.6-7.4
				c0-5.2-2.6-7.7-7.7-7.7c-2.4,0-4.3,0.7-5.6,2C293.9,147.8,293.3,149.7,293.3,152.3z"/>
			<path class="st1" d="M352.4,141.3v3.3l-6.4,0.8c0.6,0.7,1.1,1.7,1.6,2.9c0.5,1.2,0.7,2.5,0.7,4c0,3.4-1.1,6-3.4,8
				c-2.3,2-5.4,3-9.5,3c-1,0-2-0.1-2.9-0.2c-2.2,1.2-3.3,2.6-3.3,4.4c0,0.9,0.4,1.6,1.2,2.1c0.8,0.4,2.1,0.7,4,0.7h6.1
				c3.7,0,6.6,0.8,8.6,2.3s3,3.8,3,6.8c0,3.8-1.5,6.7-4.6,8.7s-7.5,3-13.3,3c-4.5,0-7.9-0.8-10.4-2.5c-2.4-1.7-3.6-4-3.6-7.1
				c0-2.1,0.7-3.9,2-5.4s3.2-2.6,5.6-3.1c-0.9-0.4-1.6-1-2.2-1.8c-0.6-0.8-0.9-1.8-0.9-2.9c0-1.3,0.3-2.3,1-3.3
				c0.7-0.9,1.7-1.8,3.2-2.7c-1.8-0.7-3.2-2-4.3-3.7c-1.1-1.8-1.7-3.8-1.7-6c0-3.8,1.1-6.7,3.4-8.7c2.3-2,5.4-3.1,9.6-3.1
				c1.8,0,3.4,0.2,4.9,0.6L352.4,141.3L352.4,141.3z M325,181.4c0,1.9,0.8,3.3,2.3,4.2c1.6,1,3.8,1.4,6.7,1.4c4.4,0,7.6-0.7,9.7-2
				c2.1-1.3,3.1-3.1,3.1-5.3c0-1.9-0.6-3.1-1.7-3.9c-1.1-0.7-3.3-1.1-6.5-1.1h-6.2c-2.4,0-4.2,0.6-5.5,1.7
				C325.7,177.7,325,179.3,325,181.4z M327.8,152.3c0,2.4,0.7,4.2,2,5.4c1.4,1.2,3.2,1.8,5.7,1.8c5.1,0,7.6-2.5,7.6-7.4
				c0-5.2-2.6-7.7-7.7-7.7c-2.4,0-4.3,0.7-5.6,2C328.5,147.8,327.8,149.7,327.8,152.3z"/>
			<path class="st1" d="M370,176.3c-5.1,0-9.1-1.5-12-4.6c-2.9-3.1-4.4-7.4-4.4-12.9c0-5.5,1.4-9.9,4.1-13.2c2.7-3.3,6.4-4.9,11-4.9
				c4.3,0,7.7,1.4,10.2,4.2c2.5,2.8,3.8,6.6,3.8,11.2v3.3H359c0.1,4,1.1,7.1,3.1,9.2c1.9,2.1,4.6,3.1,8.2,3.1c3.7,0,7.3-0.8,11-2.3
				v4.6c-1.8,0.8-3.6,1.4-5.2,1.7C374.3,176.1,372.3,176.3,370,176.3z M368.6,145.1c-2.8,0-5,0.9-6.6,2.7c-1.6,1.8-2.6,4.3-2.9,7.5
				h17.9c0-3.3-0.7-5.8-2.2-7.5C373.4,145.9,371.3,145.1,368.6,145.1z"/>
			<path class="st1" d="M404.1,140.7c1.5,0,2.9,0.1,4.1,0.4l-0.7,4.8c-1.4-0.3-2.7-0.5-3.8-0.5c-2.8,0-5.1,1.1-7.1,3.4
				c-2,2.3-3,5.1-3,8.4v18.4h-5.2v-34.3h4.3l0.6,6.4h0.2c1.3-2.2,2.8-4,4.6-5.2C400,141.3,402,140.7,404.1,140.7z"/>
		</g>
		<g>
			<g>
				<g>
					<g>
						<g>
							<g>
								<path class="st1" d="M309.1,202c0,0-3.4-0.4-4.9-0.4c-2.1,0-3.1,0.7-3.1,2.2c0,1.6,0.9,1.9,3.7,2.7c3.5,1,4.8,1.9,4.8,4.8
									c0,3.7-2.3,5.3-5.6,5.3c-2.2,0-5.5-0.7-5.5-0.7l0.3-2.2c0,0,3.3,0.4,5,0.4c2.1,0,3-0.9,3-2.7c0-1.4-0.8-1.9-3.3-2.5
									c-3.6-0.9-5.2-2-5.2-4.9c0-3.4,2.2-4.8,5.6-4.8c2.1,0,5.3,0.6,5.3,0.6L309.1,202z"/>
							</g>
							<g>
								<path class="st1" d="M316.2,199.5h4.7l3.7,13.1l3.7-13.1h4.8v16.8h-2.7v-14.5h-0.1l-4.2,13.8h-2.8l-4.2-13.8h-0.1v14.5h-2.7
									V199.5z"/>
							</g>
							<g>
								<path class="st1" d="M375.3,199.5h12.2v2.4h-4.7v14.4h-2.7v-14.4h-4.8L375.3,199.5L375.3,199.5z"/>
							</g>
							<g>
								<path class="st1" d="M399.4,199.5c3.3,0,5.1,1.2,5.1,4.4c0,2-0.6,3-2,3.8c1.4,0.6,2.4,1.6,2.4,3.9c0,3.4-2.1,4.8-5.3,4.8
									H393v-16.8H399.4z M395.7,201.9v4.8h3.6c1.7,0,2.4-0.8,2.4-2.5c0-1.6-0.8-2.3-2.5-2.3H395.7z M395.7,209v5h3.7
									c1.7,0,2.7-0.5,2.7-2.5c0-1.9-1.4-2.4-2.7-2.4H395.7z"/>
							</g>
							<g>
								<path class="st1" d="M411.6,199.5h10.6v2.4h-7.9v4.8h6.4v2.3h-6.4v4.9h7.9v2.4h-10.6V199.5z"/>
							</g>
							<g>
								<path class="st1" d="M432,199.5h5.4l4.2,16.8h-2.7l-1.2-4.9h-5.8l-1.2,4.9h-2.7L432,199.5z M432.3,209h4.7l-1.7-7.2h-1.2
									L432.3,209z"/>
							</g>
							<g>
								<path class="st1" d="M450.3,211.3v5h-2.7v-16.8h6.4c3.7,0,5.7,2.1,5.7,5.8c0,2.4-1,4.5-2.7,5.4l2.8,5.6h-3l-2.4-5
									L450.3,211.3L450.3,211.3z M454,201.9h-3.6v7.1h3.7c2.1,0,2.8-1.9,2.8-3.6C456.9,203.5,455.9,201.9,454,201.9z"/>
							</g>
							<g>
								<path class="st1" d="M343.2,199.5h5.4l4.2,16.8h-2.7l-1.2-4.9h-5.8l-1.2,4.9h-2.7L343.2,199.5z M343.6,209h4.7l-1.7-7.2
									h-1.2L343.6,209z"/>
							</g>
							<g>
								<path class="st1" d="M361.6,211.3v5h-2.7v-16.8h6.4c3.7,0,5.7,2.1,5.7,5.8c0,2.4-1,4.5-2.7,5.4l2.8,5.6h-3l-2.4-5
									L361.6,211.3L361.6,211.3z M365.2,201.9h-3.6v7.1h3.7c2.1,0,2.8-1.9,2.8-3.6C368.1,203.5,367.2,201.9,365.2,201.9z"/>
							</g>
						</g>
					</g>
				</g>
				<g>
					<path class="st1" d="M183.8,213c0,1.1-0.4,1.9-1.2,2.5c-0.8,0.6-1.9,0.9-3.2,0.9c-1.5,0-2.6-0.2-3.4-0.6v-1.4
						c0.5,0.2,1.1,0.4,1.7,0.5c0.6,0.1,1.2,0.2,1.8,0.2c1,0,1.7-0.2,2.2-0.5c0.5-0.4,0.7-0.9,0.7-1.5c0-0.4-0.1-0.8-0.3-1.1
						s-0.5-0.5-0.9-0.8s-1-0.5-1.8-0.8c-1.1-0.4-2-0.9-2.5-1.5c-0.5-0.6-0.7-1.3-0.7-2.2c0-0.9,0.4-1.7,1.1-2.3s1.7-0.8,2.8-0.8
						c1.2,0,2.4,0.2,3.4,0.7l-0.4,1.2c-1-0.4-2-0.6-3-0.6c-0.8,0-1.4,0.2-1.8,0.5c-0.4,0.3-0.6,0.8-0.6,1.4c0,0.4,0.1,0.8,0.2,1.1
						c0.2,0.3,0.4,0.5,0.8,0.8s0.9,0.5,1.7,0.8c1.3,0.5,2.2,1,2.7,1.5C183.6,211.5,183.8,212.2,183.8,213z"/>
					<path class="st1" d="M187.7,207v6c0,0.8,0.2,1.3,0.5,1.7c0.3,0.4,0.9,0.6,1.6,0.6c1,0,1.7-0.3,2.1-0.8c0.4-0.5,0.7-1.4,0.7-2.6
						V207h1.4v9.2h-1.2l-0.2-1.2h-0.1c-0.3,0.5-0.7,0.8-1.2,1c-0.5,0.2-1.1,0.4-1.7,0.4c-1.1,0-2-0.3-2.5-0.8
						c-0.6-0.5-0.8-1.4-0.8-2.6v-6L187.7,207L187.7,207z"/>
					<path class="st1" d="M201.4,216.4c-0.6,0-1.1-0.1-1.6-0.3c-0.5-0.2-0.9-0.6-1.3-1h-0.1c0.1,0.5,0.1,1.1,0.1,1.5v3.8h-1.4V207
						h1.1l0.2,1.3h0.1c0.4-0.5,0.8-0.9,1.3-1.1s1-0.3,1.6-0.3c1.2,0,2.2,0.4,2.8,1.3c0.7,0.8,1,2,1,3.5c0,1.5-0.3,2.7-1,3.5
						C203.6,216,202.6,216.4,201.4,216.4z M201.2,208.1c-0.9,0-1.6,0.3-2,0.8s-0.6,1.4-0.6,2.5v0.3c0,1.3,0.2,2.2,0.6,2.8
						c0.4,0.6,1.1,0.8,2.1,0.8c0.8,0,1.4-0.3,1.9-1c0.5-0.6,0.7-1.5,0.7-2.7c0-1.2-0.2-2-0.7-2.6
						C202.7,208.4,202.1,208.1,201.2,208.1z"/>
					<path class="st1" d="M212.3,216.4c-0.6,0-1.1-0.1-1.6-0.3c-0.5-0.2-0.9-0.6-1.3-1h-0.1c0.1,0.5,0.1,1.1,0.1,1.5v3.8H208V207
						h1.1l0.2,1.3h0.1c0.4-0.5,0.8-0.9,1.3-1.1s1-0.3,1.6-0.3c1.2,0,2.2,0.4,2.8,1.3c0.7,0.8,1,2,1,3.5c0,1.5-0.3,2.7-1,3.5
						C214.4,216,213.5,216.4,212.3,216.4z M212.1,208.1c-0.9,0-1.6,0.3-2,0.8s-0.6,1.4-0.6,2.5v0.3c0,1.3,0.2,2.2,0.6,2.8
						c0.4,0.6,1.1,0.8,2.1,0.8c0.8,0,1.4-0.3,1.9-1c0.5-0.6,0.7-1.5,0.7-2.7c0-1.2-0.2-2-0.7-2.6
						C213.5,208.4,212.9,208.1,212.1,208.1z"/>
					<path class="st1" d="M226.8,211.7c0,1.5-0.4,2.7-1.1,3.5c-0.8,0.8-1.8,1.3-3.1,1.3c-0.8,0-1.6-0.2-2.2-0.6
						c-0.6-0.4-1.1-0.9-1.5-1.7c-0.3-0.7-0.5-1.6-0.5-2.5c0-1.5,0.4-2.7,1.1-3.5s1.8-1.3,3.1-1.3c1.3,0,2.3,0.4,3.1,1.3
						C226.5,209,226.8,210.2,226.8,211.7z M219.8,211.7c0,1.2,0.2,2.1,0.7,2.7s1.2,0.9,2.1,0.9s1.6-0.3,2.1-0.9
						c0.5-0.6,0.7-1.5,0.7-2.7c0-1.2-0.2-2.1-0.7-2.7s-1.2-0.9-2.1-0.9c-0.9,0-1.6,0.3-2.1,0.9S219.8,210.5,219.8,211.7z"/>
					<path class="st1" d="M233.8,206.9c0.4,0,0.8,0,1.1,0.1l-0.2,1.3c-0.4-0.1-0.7-0.1-1-0.1c-0.7,0-1.4,0.3-1.9,0.9
						s-0.8,1.4-0.8,2.3v5h-1.4V207h1.2l0.2,1.7h0.1c0.3-0.6,0.8-1.1,1.2-1.4C232.6,207,233.2,206.9,233.8,206.9z"/>
					<path class="st1" d="M240.6,215.3c0.2,0,0.5,0,0.7-0.1c0.2,0,0.4-0.1,0.5-0.1v1.1c-0.2,0.1-0.4,0.1-0.7,0.2
						c-0.3,0-0.6,0.1-0.8,0.1c-1.8,0-2.7-0.9-2.7-2.8v-5.5h-1.3v-0.7l1.3-0.6l0.6-2h0.8v2.1h2.7v1.1h-2.7v5.4c0,0.6,0.1,1,0.4,1.3
						C239.8,215.1,240.1,215.3,240.6,215.3z"/>
					<path class="st1" d="M247.8,216.4c-1.4,0-2.4-0.4-3.2-1.2c-0.8-0.8-1.2-2-1.2-3.5c0-1.5,0.4-2.7,1.1-3.5c0.7-0.9,1.7-1.3,3-1.3
						c1.2,0,2.1,0.4,2.7,1.1c0.7,0.8,1,1.8,1,3v0.9h-6.4c0,1.1,0.3,1.9,0.8,2.5c0.5,0.6,1.3,0.8,2.2,0.8c1,0,2-0.2,2.9-0.6v1.2
						c-0.5,0.2-1,0.4-1.4,0.5C248.9,216.4,248.4,216.4,247.8,216.4z M247.4,208c-0.7,0-1.3,0.2-1.8,0.7c-0.4,0.5-0.7,1.2-0.8,2h4.8
						c0-0.9-0.2-1.6-0.6-2C248.7,208.3,248.1,208,247.4,208z"/>
					<path class="st1" d="M260.2,215L260.2,215c-0.7,0.9-1.7,1.4-3,1.4c-1.2,0-2.1-0.4-2.8-1.2c-0.7-0.8-1-2-1-3.5s0.3-2.7,1-3.5
						c0.7-0.8,1.6-1.3,2.8-1.3c1.3,0,2.2,0.5,2.9,1.4h0.1l-0.1-0.7l0-0.6v-3.8h1.4v13.1h-1.1L260.2,215z M257.4,215.3
						c1,0,1.6-0.3,2.1-0.8s0.6-1.4,0.6-2.5v-0.3c0-1.3-0.2-2.2-0.7-2.8c-0.4-0.6-1.1-0.8-2.1-0.8c-0.8,0-1.4,0.3-1.9,1
						c-0.4,0.6-0.7,1.5-0.7,2.7c0,1.2,0.2,2.1,0.6,2.7C255.9,215,256.5,215.3,257.4,215.3z"/>
					<path class="st1" d="M273.9,206.9c1.2,0,2.2,0.4,2.8,1.2c0.7,0.8,1,2,1,3.5c0,1.5-0.3,2.7-1,3.5c-0.7,0.8-1.6,1.3-2.8,1.3
						c-0.6,0-1.1-0.1-1.6-0.3s-0.9-0.6-1.3-1h-0.1l-0.3,1.2h-1v-13.1h1.4v3.2c0,0.7,0,1.4-0.1,1.9h0.1
						C271.7,207.4,272.7,206.9,273.9,206.9z M273.7,208.1c-1,0-1.6,0.3-2.1,0.8c-0.4,0.5-0.6,1.5-0.6,2.8c0,1.3,0.2,2.2,0.6,2.8
						c0.4,0.6,1.1,0.8,2.1,0.8c0.9,0,1.5-0.3,1.9-0.9c0.4-0.6,0.6-1.5,0.6-2.7c0-1.2-0.2-2.1-0.6-2.7S274.6,208.1,273.7,208.1z"/>
					<path class="st1" d="M279,207h1.5l2,5.3c0.4,1.2,0.7,2.1,0.8,2.6h0.1c0.1-0.3,0.2-0.8,0.5-1.5c0.2-0.7,1-2.8,2.3-6.4h1.5
						l-4,10.5c-0.4,1-0.9,1.8-1.4,2.2c-0.5,0.4-1.2,0.7-1.9,0.7c-0.4,0-0.8,0-1.3-0.1v-1.1c0.3,0.1,0.7,0.1,1,0.1
						c1,0,1.6-0.5,2.1-1.6l0.5-1.3L279,207z"/>
				</g>
			</g>
		</g>
	</g>
</g>
</svg>
